# xmcd CD database file
#
# Track frame offsets:
#	150
#	17901
#	34725
#	51527
#	88460
#	116678
#	126808
#	142964
#	165509
#	180583
#	201722
#	220677
#	241365
#
# Disc length: 3559 seconds
#
# Revision: 0
# Processed by: cddbd v1.5.2PL0 Copyright (c) Steve Scherf et al.
# Submitted via: CDex 1.70beta2
#
DISCID=c20de50d
DTITLE=Killer Smells - TARADO 1&2
DYEAR=1900
DGENRE=Jazz
TTITLE0=Blue Light, Red Light
TTITLE1=The Razor
TTITLE2=A Wanderer
TTITLE3=Sex On The Beach
TTITLE4=Tarado
TTITLE5=Abayo
TTITLE6=Shake Ya Booty (Pussy Bad)
TTITLE7=Golden Finger (Tarado 2)
TTITLE8=Rabo de Gallo
TTITLE9=Stray Dawgs
TTITLE10=Dick Sucker Blues
TTITLE11=Drive Me Nasty (Sochin Mix)
TTITLE12=Billiken Blues
EXTD=
EXTT0=
EXTT1=
EXTT2=
EXTT3=
EXTT4=
EXTT5=
EXTT6=
EXTT7=
EXTT8=
EXTT9=
EXTT10=
EXTT11=
EXTT12=
PLAYORDER=
